<svg xmlns="http://www.w3.org/2000/svg" width="23" height="22" viewBox="0 0 23 22"><g><g><path fill="#fff" d="M22.148 8.618c.008.11.013.22.016.33.042 1.562-.516 3.244-1.502 4.637-.28.396-.595.769-.94 1.109-1.095 1.079-3.003 2.342-5.876 2.233-3.959-.151-5.287 1.53-6.167 2.64-.042.054-.082.106-.122.155l-.068.086c-.635.795-1.696 2.128-3.172 2.098-.947-.02-1.868-.616-2.735-1.773C.205 18.296-.39 15.349.028 12.439a13.652 13.652 0 0 1 1.8-5.053c1.062-1.783 2.528-3.37 4.36-4.715A16.137 16.137 0 0 1 9.872.655c1.38-.545 2.795-.744 4.206-.591a8.676 8.676 0 0 1 3.729 1.31 9.377 9.377 0 0 1 4.341 7.244zm-4.816-6.49c-2.17-1.37-4.7-1.597-7.124-.641a15.063 15.063 0 0 0-3.484 1.905c-1.54 1.131-2.688 2.344-3.54 3.549a12.902 12.902 0 0 0-2.268 5.633c-.461 3.207.411 5.733 1.382 7.027.692.923 1.375 1.397 2.03 1.41 1.033.022 1.924-1.096 2.456-1.764l.07-.086.119-.15c.456-.578 1.082-1.368 2.153-1.993 1.264-.736 2.817-1.058 4.746-.985 2.554.097 4.246-1.022 5.216-1.978 1.392-1.371 2.227-3.322 2.18-5.092a6.668 6.668 0 0 0-.015-.29v-.001a8.471 8.471 0 0 0-3.921-6.543zm3.325 6.58c.006.09.01.179.012.266.033 1.21-.426 2.608-1.226 3.74-.756 1.067-2.482 2.84-5.553 2.723-2.047-.077-3.704.271-5.069 1.066-1.168.68-1.86 1.556-2.319 2.136l-.187.235c-.745.934-1.367 1.554-1.98 1.542-.573-.012-1.164-.642-1.559-1.169-.89-1.188-1.409-3.085-1.386-5.073.02-1.693.434-4.263 2.292-6.89.894-1.263 2.038-2.41 3.4-3.411a14.475 14.475 0 0 1 3.35-1.832c2.242-.884 4.58-.674 6.583.59a7.867 7.867 0 0 1 3.642 6.077zM16.54 3.386c-1.753-1.107-3.802-1.29-5.77-.513a13.602 13.602 0 0 0-3.152 1.722c-1.285.944-2.362 2.024-3.2 3.209-1.728 2.44-2.112 4.821-2.13 6.388-.022 1.798.43 3.49 1.205 4.524.46.614.774.79.854.805.1-.008.418-.146 1.263-1.207l.186-.233c.5-.632 1.254-1.586 2.567-2.351 1.515-.883 3.331-1.27 5.553-1.186 2.651.1 4.14-1.429 4.792-2.35.694-.981 1.092-2.18 1.065-3.204a6.961 6.961 0 0 0-3.233-5.604zm-.73 2.431c1.256.889 1.562 2.623.682 3.867-.88 1.244-2.618 1.533-3.873.644-1.256-.888-1.562-2.623-.682-3.867.88-1.243 2.618-1.532 3.873-.644zm-.514.728a1.883 1.883 0 0 0-2.624.436 1.883 1.883 0 0 0 .462 2.62c.85.602 2.027.406 2.623-.437a1.883 1.883 0 0 0-.461-2.62zm-10.95 4.337l2.18 4.708a.445.445 0 0 1-.218.592.452.452 0 0 1-.595-.223l-2.18-4.709a.444.444 0 0 1 .218-.592.452.452 0 0 1 .595.224zM6.594 7.86l2.877 6.213a.445.445 0 0 1-.218.592.452.452 0 0 1-.596-.223L5.78 8.229A.443.443 0 0 1 6 7.637a.453.453 0 0 1 .595.223zM9.46 5.277l3.728 8.126a.445.445 0 0 1-.22.59c-.225.102-.491 0-.595-.225L8.645 5.643a.443.443 0 0 1 .22-.591c.225-.101.492 0 .595.225zm7.093 5.8l.367.798a.445.445 0 0 1-.22.591.452.452 0 0 1-.595-.225l-.367-.798a.443.443 0 0 1 .22-.592c.225-.1.492 0 .595.226zm-3.545-7.702l.46 1.002a.444.444 0 0 1-.22.59c-.226.101-.492 0-.595-.225l-.46-1a.444.444 0 0 1 .22-.592c.226-.1.492 0 .595.225z"/></g></g></svg>