<svg xmlns="http://www.w3.org/2000/svg" width="29" height="26" viewBox="0 0 29 26"><g><g><path fill="#fff" d="M27.742 2.063c1.335 1.659.618 5.863-1.598 9.372 0 .002-.001.002-.002.003a15.862 15.862 0 0 1-3.463 3.903c-.393.316-.82.609-1.27.874-.142.681-.52 2.062-1.425 3.38a1.684 1.684 0 0 1-1.34.736 1.697 1.697 0 0 1-1.394-.638l-1.395-1.732c-2.157.252-4.137.111-5.414-.05.448.842.881 2.02.748 3.28-.228 2.157-2.022 3.714-2.428 4.04l-.079.061a.635.635 0 0 1-.862-.095c-.075-.087-1.842-2.171-1.59-4.553.062-.59.241-1.135.477-1.623-.524.13-1.091.191-1.682.126-2.38-.263-4.038-2.435-4.108-2.526a.635.635 0 0 1 .092-.864c.086-.074 2.16-1.834 4.541-1.572 1.25.139 2.292.792 3.01 1.394.155-1.748.628-4.772 2.061-7.547l-1.52-1.89a1.706 1.706 0 0 1-.34-1.449c.115-.508.448-.929.915-1.154 2.814-1.353 5.357-.995 6.173-.825a16.29 16.29 0 0 1 2.505-1.134l.006-.002.003-.001c1.884-.667 3.89-.982 5.65-.888 1.768.094 3.092.582 3.729 1.374zM8.187 16.958c-.54-.542-1.55-1.375-2.77-1.51-1.228-.135-2.404.471-3.055.894.55.555 1.576 1.407 2.797 1.542 1.224.135 2.395-.499 3.028-.926zm.833 1.033c-.546.54-1.398 1.566-1.528 2.792-.129 1.22.483 2.404.908 3.06.552-.548 1.398-1.57 1.527-2.79.13-1.23-.482-2.41-.907-3.062zM11.3 6.857c.687-1.061 1.487-1.963 2.387-2.688.15-.12.3-.237.455-.352a8.84 8.84 0 0 0-3.913.868.417.417 0 0 0-.23.29.438.438 0 0 0 .087.373zm8.586 10.106c-.8.325-1.665.583-2.59.77l.94 1.166c.12.149.274.166.356.163a.432.432 0 0 0 .344-.189 7.967 7.967 0 0 0 .95-1.91zm4.579-5.325c-1.892-.306-3.776-1.347-4.934-2.785-1.268-1.576-1.92-3.732-1.773-5.67a14.86 14.86 0 0 0-1.49.755c-.628.365-1.227.776-1.783 1.223-.988.795-1.844 1.839-2.545 3.102l-.007.011c-1.755 3.168-2.098 6.898-2.165 8.253 1.05.175 3.567.498 6.268.13 1.714-.234 3.226-.708 4.494-1.406a9.39 9.39 0 0 0 1.35-.902 14.438 14.438 0 0 0 2.585-2.71zm2.289-8.781c-.738-.917-3.969-1.402-7.648-.19-.339 1.74.219 3.908 1.412 5.391 1.091 1.356 2.958 2.29 4.737 2.394 2.019-3.366 2.25-6.663 1.499-7.595zM24.36 4.6l.179.223a.635.635 0 0 1-.095.893.635.635 0 0 1-.892-.1l-.179-.221a.635.635 0 0 1 .095-.893.635.635 0 0 1 .892.098zm-7.614 1.975a3.345 3.345 0 0 0-.01.193.63.63 0 0 1-.647.619.638.638 0 0 1-.622-.651c.002-.09.006-.18.014-.268a.631.631 0 0 1 .683-.58c.349.03.61.338.582.687zm4.756 6.164a.63.63 0 0 1-.736.51c-1.356-.246-2.724-1.122-3.753-2.4A7.322 7.322 0 0 1 15.75 8.54a.633.633 0 1 1 1.207-.385 6.033 6.033 0 0 0 1.044 1.9c.84 1.043 1.929 1.752 2.988 1.945a.639.639 0 0 1 .514.739z"/></g></g></svg>