<svg xmlns="http://www.w3.org/2000/svg" width="21" height="21" viewBox="0 0 21 21"><g><g><path fill="#fff" d="M4.768 17.527l-2.582 2.64a.353.353 0 0 1-.115.079l-1.693.724a.356.356 0 0 1-.466-.472l.738-1.68a.354.354 0 0 1 .072-.106l2.619-2.677a.356.356 0 1 1 .509.5l-2.573 2.63-.349.793.798-.34 2.533-2.59a.356.356 0 1 1 .509.499zM20.883 1.285a.359.359 0 0 1-.105.253L17.829 4.47a.355.355 0 0 1-.504-.002.357.357 0 0 1 .002-.505l2.694-2.68-.45-.45-2.66 2.644a.356.356 0 0 1-.504-.001.358.358 0 0 1 .002-.505L19.321.076a.356.356 0 0 1 .503 0l.955.956a.357.357 0 0 1 .104.253zm-2.747 5.706a1.688 1.688 0 0 1-.482 1.177l-1.447 1.45c-.348.348-.828.517-1.351.477a2.111 2.111 0 0 1-.968-.328c.042.229.061.462.058.695a3.299 3.299 0 0 1-.956 2.298c-.77.772-1.866 1.086-2.938.907.225.352.345.755.34 1.156A1.69 1.69 0 0 1 9.908 16l-1.448 1.45c-.702.702-1.92.626-2.716-.17l-2.146-2.15c-.795-.798-.871-2.018-.17-2.721l1.447-1.451a1.684 1.684 0 0 1 1.175-.483c.4-.006.802.115 1.154.34-.179-1.074.135-2.172.905-2.944a3.286 3.286 0 0 1 2.294-.957c.233-.003.465.016.694.057a2.123 2.123 0 0 1-.327-.969c-.04-.524.129-1.005.476-1.353l1.447-1.45a1.68 1.68 0 0 1 1.175-.483c.558-.009 1.12.23 1.544.653l2.07 2.075c.424.424.662.988.653 1.547zm-.713-.01c.006-.367-.156-.743-.444-1.031l-2.07-2.075c-.288-.288-.663-.45-1.03-.445a.96.96 0 0 0-.68.274l-1.448 1.45c-.198.199-.294.48-.27.794.026.333.183.66.44.918l.496.498a.358.358 0 0 1 0 .505l-.068.068a.356.356 0 0 1-.435.054c-.481-.289-.955-.37-1.499-.362-.69.01-1.33.275-1.8.747-.86.861-.99 2.249-.318 3.374.084.14.062.32-.054.436l-.049.05a.356.356 0 0 1-.504 0l-.6-.602c-.287-.288-.662-.45-1.028-.444a.961.961 0 0 0-.682.274l-1.447 1.45c-.424.425-.347 1.193.171 1.712l.004.004 2.135 2.14c.002 0 .003.002.004.003.518.52 1.286.596 1.71.172l1.448-1.45a.966.966 0 0 0 .273-.683c.006-.366-.156-.742-.444-1.03l-.6-.6a.357.357 0 0 1 0-.506l.05-.049a.356.356 0 0 1 .435-.054c1.123.674 2.508.543 3.367-.318.471-.471.736-1.112.747-1.804.008-.545-.074-1.02-.362-1.501a.357.357 0 0 1 .054-.436s.225-.173.32-.173c.094 0 .185.038.252.105l.496.496c.259.259.584.415.917.44a.989.989 0 0 0 .792-.27l1.448-1.45a.964.964 0 0 0 .273-.682z"/></g></g></svg>