<svg xmlns="http://www.w3.org/2000/svg" width="28" height="24" viewBox="0 0 28 24"><g><g><path fill="#fff" d="M15.65 4.001a.4.4 0 0 1-.234.127c-.224.034-.431-.137-.462-.382a3.117 3.117 0 0 1-.007-.73c.026-.245.23-.42.455-.392.225.03.386.252.36.498-.019.166-.017.334.004.5a.473.473 0 0 1-.117.38zM9.393 8.003c-.12.103-.229.224-.32.357a.399.399 0 0 1-.328.178.387.387 0 0 1-.247-.09.476.476 0 0 1-.08-.628 2.76 2.76 0 0 1 .467-.52.387.387 0 0 1 .576.074c.14.194.11.476-.068.629zm-.665 1.774c.03.245-.13.47-.354.501a.37.37 0 0 1-.053.004c-.203 0-.38-.165-.406-.391a3.132 3.132 0 0 1 0-.73c.03-.245.235-.418.46-.386.224.032.383.257.354.502a2.112 2.112 0 0 0 0 .5zm3.756-1.327a.386.386 0 0 1-.574-.088 1.892 1.892 0 0 0-.32-.358.476.476 0 0 1-.068-.629.387.387 0 0 1 .576-.074c.175.151.332.327.467.522.136.197.1.478-.08.627zm.603 1.078c0 .122-.007.245-.021.366-.027.226-.203.39-.407.39a.373.373 0 0 1-.053-.003c-.224-.032-.383-.257-.354-.502a2.123 2.123 0 0 0 0-.5c-.028-.246.13-.47.355-.502.224-.031.43.142.459.387.014.12.021.242.021.364zM24.35 7.04c0 .742-.551 1.344-1.23 1.344-.226 0-.41-.2-.41-.447 0-.248.184-.449.41-.449.227 0 .41-.2.41-.447 0-.248-.183-.449-.41-.449h-1.64c-.226 0-.41.201-.41.449 0 .246.184.447.41.447.227 0 .41.2.41.449 0 .247-.183.447-.41.447-.678 0-1.23-.602-1.23-1.344 0-.74.552-1.343 1.23-1.343h1.64c.679 0 1.23.603 1.23 1.343zm3.647-1.161c0 .274-.054.547-.16.811-.184.461-.52.861-.944 1.125a2.09 2.09 0 0 0-.57.49.865.865 0 0 0-.196.54c0 .066.117.77-.169 1.575a.398.398 0 0 1-.757.019c-.139-.346.205-.53.118-1.386-.11-.898.444-1.564 1.17-2.017.666-.41.993-1.35.302-2.015a1.356 1.356 0 0 0-1.258-.347c-.165.062-.864.174-1.428-.062a1.72 1.72 0 0 1-.675-.509c-.695-.844-2.154-.693-2.687.345-.116.393-.955 1.197-1.96.878-1.055-.31-2.08.583-2.164 1.622-.024.299-.05.608-.167.879-.06.138-.141.283-.258.427-.674.835-1.25.335-1.924 1.263a2.05 2.05 0 0 0-.348 1.635h2.48a3.722 3.722 0 0 1 1.014-1.92 3.174 3.174 0 0 1 2.24-.947c1.06 0 2.011.547 2.62 1.4a.477.477 0 0 1-.07.628.386.386 0 0 1-.576-.077c-.48-.67-1.2-1.055-1.975-1.055h-.002c-1.137 0-2.102.82-2.407 1.971h8.09c.634 0 1.22.32 1.605.877a2.4 2.4 0 0 1 .337 1.972c-.725 2.795-2.676 5.231-5.506 6.884a3.481 3.481 0 0 1-.948 2.167c-.584.607-1.347.942-2.15.942H8.98c-.802 0-1.565-.335-2.149-.942a3.482 3.482 0 0 1-.948-2.168C3.05 19.23 1.097 16.79.374 13.991a2.388 2.388 0 0 1 .338-1.96c.264-.381.621-.651 1.024-.784a2.485 2.485 0 0 1-.43-1.676c.009-.086.036-.345-.47-.662-.814-.506-1.118-1.628-.5-2.445A1.609 1.609 0 0 1 2 5.853c.25.06.594.081.79-.163.817-.994 2.404-.794 2.999.377a.471.471 0 0 1-.16.609c-.198.12-.447.042-.557-.174-.324-.637-1.235-.745-1.669-.217-.355.443-.918.601-1.582.442-.565-.14-1.179.386-.942.975.068.173.2.328.363.43.808.505.922 1.118.877 1.543-.063.589.22 1.206.824 1.478h3.582A5.026 5.026 0 0 1 6.383 8.4l-.018.022a.386.386 0 0 1-.58 0 .39.39 0 0 0-.58 0l-1.16 1.267a.478.478 0 0 0 0 .633c.16.175.16.459 0 .633a.392.392 0 0 1-.29.132.392.392 0 0 1-.29-.132 1.435 1.435 0 0 1 0-1.9l1.16-1.267c.232-.253.541-.393.87-.393.33 0 .638.14.87.393a.46.46 0 0 1 .115.253C7.05 6.216 8.632 4.9 10.492 4.9c1.902 0 3.515 1.377 4.048 3.266.176-.09.362-.158.553-.199h.005a.868.868 0 0 0 .577-.451c-1.526-.807-2.506-2.568-2.373-4.512-.43-.18-.906-.18-1.308-.008.057.156.088.324.088.498 0 .745-.548 1.343-1.23 1.343-.329 0-.637-.14-.87-.393a.478.478 0 0 1 0-.633.386.386 0 0 1 .58 0c.255.278.7.085.7-.317 0-.249-.026-.214-1.28-1.584a.387.387 0 0 0-.579 0 .479.479 0 0 0 0 .634l.086.094c.31.34-.023.905-.434.736-.796-.327-1.765.062-2.159.866a2.313 2.313 0 0 1-.417.602.386.386 0 0 1-.58-.02.478.478 0 0 1 .019-.633c.098-.1.184-.226.255-.371.45-.918 1.363-1.463 2.297-1.457a1.418 1.418 0 0 1 .353-1.084 1.16 1.16 0 0 1 1.74 0l.91.994a2.39 2.39 0 0 1 1.971-.161c.269-1.062.623-1.4 1.097-2.018a.386.386 0 0 1 .58 0l4.031 4.405c.352.045.694-.136.874-.483v-.002c.798-1.56 2.928-1.816 4.012-.508.44.558 1.246.298 1.312.298 1.307-.329 2.646.708 2.646 2.078zM7.075 9.528c0 .583.123 1.134.342 1.625h.956c-.207-.483.404-.887.699-.46.092.134.2.255.32.359.034.029.063.063.086.101h.603v-.046c-.63-.195-1.093-.83-1.093-1.58 0-.75.463-1.383 1.093-1.58V7.14c0-.248.184-.448.41-.448.227 0 .41.2.41.448V8.42l-.007-.003c-.036.207-.203.363-.402.363-.377 0-.684.335-.684.747s.307.746.684.746c.376 0 .683-.334.683-.746 0-.248.183-.448.41-.448.226 0 .41.2.41.448 0 .75-.463 1.384-1.094 1.58v.045h.603a.436.436 0 0 1 .085-.1 1.89 1.89 0 0 0 .32-.358c.296-.426.905-.025.7.458h.476a3.044 3.044 0 0 1 .542-2.19c.062-.087.129-.168.199-.245-.34-1.67-1.705-2.923-3.334-2.923-1.885 0-3.417 1.675-3.417 3.733zM2.32 12.049c-.377 0-.724.19-.954.522a1.432 1.432 0 0 0-.203 1.176c.678 2.627 2.563 4.922 5.307 6.463.058.032.11.084.143.134.092.138.078.26.082.36.043 1.32 1.068 2.395 2.285 2.395h9.694c1.106 0 2.054-.889 2.25-2.042H7.922c-.226 0-.41-.201-.41-.449 0-.247.184-.447.41-.447H21.27c2.693-1.538 4.545-3.81 5.218-6.404a1.444 1.444 0 0 0-.202-1.187 1.154 1.154 0 0 0-.952-.52H2.32zm15.592-7.64l-1.064-1.162a.778.778 0 0 0 .193.633c.16.175.16.458 0 .633a.386.386 0 0 1-.58 0 1.712 1.712 0 0 1-.44-1.16c0-.286.066-.56.19-.802L14.836 1.05c-1.268 1.764-.839 4.408 1.001 5.548.062-.337.178-.634.337-.905a.385.385 0 0 1-.236-.093 2.753 2.753 0 0 1-.472-.516.477.477 0 0 1 .075-.629.388.388 0 0 1 .575.082c.26.37.42.35.473.611.4-.404.853-.643 1.323-.738z"/></g></g></svg>