<svg xmlns="http://www.w3.org/2000/svg" width="19" height="28" viewBox="0 0 19 28"><g><g><path fill="#fff" d="M19.007 7.955V27.62a.375.375 0 0 1-.375.375h-7.818a.375.375 0 0 1-.376-.375V7.955c0-.207.168-.375.376-.375h.846V5.146c0-.207.168-.375.375-.375h1.391L14.12.527a.617.617 0 0 1 .611-.525.616.616 0 0 1 .622.513l.782 4.256h1.275c.207 0 .375.168.375.375V7.58h.847c.207 0 .375.168.375.375zm-4.82-3.184h1.185l-.628-3.414zm-1.777 2.81h4.625V5.52H12.41zm5.847.75h-7.068v18.913h7.068zM1.507 26.118V15.313a.375.375 0 0 1 .75 0v10.805a.375.375 0 0 1-.75 0zm7.068-12.235V27.62a.375.375 0 0 1-.375.375H.38a.375.375 0 0 1-.375-.375V13.883c0-.207.168-.375.375-.375h.847v-2.434c0-.207.168-.375.375-.375h1.391l.693-4.244A.617.617 0 0 1 4.3 5.93a.616.616 0 0 1 .622.513l.782 4.256h1.275c.207 0 .375.168.375.375v2.434H8.2c.207 0 .375.168.375.375zM3.755 10.7h1.184l-.627-3.414zm-1.777 2.81h4.625v-2.06H1.978zm5.846.75H.757v12.985h7.067zm4.115 11.86V9.384a.375.375 0 0 1 .751 0v16.733a.375.375 0 0 1-.75 0z"/></g></g></svg>