<svg id="Слой_1" data-name="Слой 1" xmlns="http://www.w3.org/2000/svg" viewBox="0 0 90 90"><defs><style>.cls-1{fill:#ff3800;}</style></defs><title>instagram-02</title><path class="cls-1" d="M56,71.51H34.05A15.58,15.58,0,0,1,18.49,56V34.05A15.58,15.58,0,0,1,34.05,18.49H56A15.58,15.58,0,0,1,71.51,34.05V56A15.58,15.58,0,0,1,56,71.51ZM34.05,19.7A14.37,14.37,0,0,0,19.7,34.05V56A14.37,14.37,0,0,0,34.05,70.3H56A14.37,14.37,0,0,0,70.3,56V34.05A14.37,14.37,0,0,0,56,19.7ZM56.2,66.87H33.8A10.55,10.55,0,0,1,23.26,56.34V33.92A10.55,10.55,0,0,1,33.8,23.39H56.2A10.54,10.54,0,0,1,66.74,33.92V56.34A10.55,10.55,0,0,1,56.2,66.87ZM33.8,24.6a9.34,9.34,0,0,0-9.32,9.32V56.34a9.33,9.33,0,0,0,9.32,9.31H56.2a9.34,9.34,0,0,0,9.33-9.31V33.92A9.34,9.34,0,0,0,56.2,24.6Z"/><path class="cls-1" d="M45,59.18a14.05,14.05,0,1,1,14-14A14.06,14.06,0,0,1,45,59.18ZM45,32.3A12.83,12.83,0,1,0,57.84,45.13,12.84,12.84,0,0,0,45,32.3Zm0,22.15a9.32,9.32,0,1,1,9.32-9.32A9.33,9.33,0,0,1,45,54.45ZM45,37a8.11,8.11,0,1,0,8.11,8.11A8.11,8.11,0,0,0,45,37Z"/><path class="cls-1" d="M58.89,34.91a3.74,3.74,0,1,1,3.74-3.73A3.74,3.74,0,0,1,58.89,34.91Zm0-6.26a2.53,2.53,0,1,0,2.52,2.53A2.52,2.52,0,0,0,58.89,28.65Z"/></svg>