<svg xmlns="http://www.w3.org/2000/svg" width="2009" height="316" viewBox="0 0 2009 316"><defs><mask id="vgt0b" width="2" height="2" x="-1" y="-1"><path fill="#fff" d="M14 16h1981v5H14z"/><path d="M14 16h1981v5H14z"/></mask><filter id="vgt0a" width="2041" height="65" x="-16" y="-14" filterUnits="userSpaceOnUse"><feOffset in="SourceGraphic" result="FeOffset1119Out"/><feGaussianBlur in="FeOffset1119Out" result="FeGaussianBlur1120Out" stdDeviation="8 8"/></filter><mask id="vgt0f" width="2" height="2" x="-1" y="-1"><path fill="#fff" d="M14 16h1981v5H14z"/><path d="M14 16h1981v5H14z"/></mask><filter id="vgt0e" width="2013.1" height="37.4" x="-4.1" y="2" filterUnits="userSpaceOnUse"><feOffset dx="-4.1" dy="4.4" in="SourceGraphic" result="FeOffset1136Out"/><feGaussianBlur in="FeOffset1136Out" result="FeGaussianBlur1137Out" stdDeviation="1.6 1.6"/></filter><filter id="vgt0c" width="200%" height="200%" x="-50%" y="-50%"><feGaussianBlur in="SourceGraphic" result="FeGaussianBlur1143Out" stdDeviation="1 1"/></filter><mask id="vgt0d"><path fill="#fff" d="M14 16h1981v5H14z"/></mask><filter id="vgt0g" width="200%" height="200%" x="-50%" y="-50%"><feGaussianBlur in="SourceGraphic" result="FeGaussianBlur1150Out" stdDeviation="0.4 0.4"/></filter><mask id="vgt0h"><path fill="#fff" d="M14 16h1981v5H14z"/></mask><mask id="vgt0j" width="2" height="2" x="-1" y="-1"><path fill="#fff" d="M14 295h1981v5H14z"/><path d="M14 295h1981v5H14z"/></mask><filter id="vgt0i" width="2041" height="65" x="-16" y="265" filterUnits="userSpaceOnUse"><feOffset in="SourceGraphic" result="FeOffset1165Out"/><feGaussianBlur in="FeOffset1165Out" result="FeGaussianBlur1166Out" stdDeviation="8 8"/></filter><mask id="vgt0n" width="2" height="2" x="-1" y="-1"><path fill="#fff" d="M14 295h1981v5H14z"/><path d="M14 295h1981v5H14z"/></mask><filter id="vgt0m" width="2013.1" height="37.4" x="-4.1" y="281" filterUnits="userSpaceOnUse"><feOffset dx="-4.1" dy="4.4" in="SourceGraphic" result="FeOffset1182Out"/><feGaussianBlur in="FeOffset1182Out" result="FeGaussianBlur1183Out" stdDeviation="1.6 1.6"/></filter><filter id="vgt0k" width="200%" height="200%" x="-50%" y="-50%"><feGaussianBlur in="SourceGraphic" result="FeGaussianBlur1189Out" stdDeviation="1 1"/></filter><mask id="vgt0l"><path fill="#fff" d="M14 295h1981v5H14z"/></mask><filter id="vgt0o" width="200%" height="200%" x="-50%" y="-50%"><feGaussianBlur in="SourceGraphic" result="FeGaussianBlur1196Out" stdDeviation="0.4 0.4"/></filter><mask id="vgt0p"><path fill="#fff" d="M14 295h1981v5H14z"/></mask></defs><g><g><g filter="url(#vgt0a)"><path fill="none" d="M14 16h1981v5H14z" mask="url(&quot;#vgt0b&quot;)"/><path fill="#5f2edb" d="M14 16h1981v5H14z"/></g><path fill-opacity=".55" stroke="#000" stroke-opacity=".55" stroke-width="4" d="M12 23v-9h1985v9zm2-2h1981v-5H14z" filter="url(#vgt0c)" mask="url(&quot;#vgt0d&quot;)"/><g filter="url(#vgt0a)"><path fill="none" d="M14 16h1981v5H14z" mask="url(&quot;#vgt0b&quot;)"/><path fill="#5f2edb" d="M14 16h1981v5H14z"/></g><g filter="url(#vgt0e)"><path fill="none" d="M14 16h1981v5H14z" mask="url(&quot;#vgt0f&quot;)"/><path fill="#070406" d="M14 16h1981v5H14z"/></g><path d="M14 16h1981v5H14z"/><path fill="#e1d3ff" d="M14 16h1981v5H14z"/><path fill-opacity=".55" stroke="#000" stroke-opacity=".55" stroke-width="4" d="M12 23v-9h1985v9zm2-2h1981v-5H14z" filter="url(#vgt0c)" mask="url(&quot;#vgt0d&quot;)"/><path fill-opacity=".45" stroke="#000" stroke-opacity=".45" stroke-width="2.4" d="M13.2 21.8v-6.6h1982.6v6.6zm.8-.8h1981v-5H14z" filter="url(#vgt0g)" mask="url(&quot;#vgt0h&quot;)"/></g><g><g filter="url(#vgt0i)"><path fill="none" d="M14 295h1981v5H14z" mask="url(&quot;#vgt0j&quot;)"/><path fill="#5f2edb" d="M14 295h1981v5H14z"/></g><path fill-opacity=".55" stroke="#000" stroke-opacity=".55" stroke-width="4" d="M12 302v-9h1985v9zm2-2h1981v-5H14z" filter="url(#vgt0k)" mask="url(&quot;#vgt0l&quot;)"/><g filter="url(#vgt0i)"><path fill="none" d="M14 295h1981v5H14z" mask="url(&quot;#vgt0j&quot;)"/><path fill="#5f2edb" d="M14 295h1981v5H14z"/></g><g filter="url(#vgt0m)"><path fill="none" d="M14 295h1981v5H14z" mask="url(&quot;#vgt0n&quot;)"/><path fill="#070406" d="M14 295h1981v5H14z"/></g><path d="M14 295h1981v5H14z"/><path fill="#e1d3ff" d="M14 295h1981v5H14z"/><path fill-opacity=".55" stroke="#000" stroke-opacity=".55" stroke-width="4" d="M12 302v-9h1985v9zm2-2h1981v-5H14z" filter="url(#vgt0k)" mask="url(&quot;#vgt0l&quot;)"/><path fill-opacity=".45" stroke="#000" stroke-opacity=".45" stroke-width="2.4" d="M13.2 300.8v-6.6h1982.6v6.6zm.8-.8h1981v-5H14z" filter="url(#vgt0o)" mask="url(&quot;#vgt0p&quot;)"/></g></g></svg>